PathFileType	4	(X/Y/Z)	C:\Users\Graham\Documents\MATLAB\MOtoNMS_v2_2\MyData\ElaboratedData\S8\22-05-17\staticElaborations\Static1\Static1\\Static1.trc
DataRate	CameraRate	NumFrames	NumMarkers	Units	OrigDataRate	DataStartFrame
100	100	4	38	mm	100	2
Frame#	Time	V_Sacral			R_ASIS			L_ASIS			R_Knee_Lat			R_Knee_Med			R_Thigh_Upper			R_Thigh_Front			R_Thigh_Rear			L_Knee_Lat			L_Knee_Med			L_Thigh_Upper			L_Thigh_Front			L_Thigh_Rear			R_Ankle_Lat			R_Ankle_Med			R_Shank_Upper			R_Shank_Front			R_Shank_Rear			L_Ankle_Lat			L_Ankle_Med			L_Shank_Upper			L_Shank_Front			L_Shank_Rear			R_Heel			R_MTP1			R_MTP5			L_Heel			L_MTP1			L_MTP5			Clavicle			R_Acromium			L_Acromium			LAJC			RAJC			LHJC			RHJC			LKJC			RKJC		
		X1	Y1	Z1	X2	Y2	Z2	X3	Y3	Z3	X4	Y4	Z4	X5	Y5	Z5	X6	Y6	Z6	X7	Y7	Z7	X8	Y8	Z8	X9	Y9	Z9	X10	Y10	Z10	X11	Y11	Z11	X12	Y12	Z12	X13	Y13	Z13	X14	Y14	Z14	X15	Y15	Z15	X16	Y16	Z16	X17	Y17	Z17	X18	Y18	Z18	X19	Y19	Z19	X20	Y20	Z20	X21	Y21	Z21	X22	Y22	Z22	X23	Y23	Z23	X24	Y24	Z24	X25	Y25	Z25	X26	Y26	Z26	X27	Y27	Z27	X28	Y28	Z28	X29	Y29	Z29	X30	Y30	Z30	X31	Y31	Z31	X32	Y32	Z32	X33	Y33	Z33	X34	Y34	Z34	X35	Y35	Z35	X36	Y36	Z36	X37	Y37	Z37	X38	Y38	Z38	

192	1.910000	-245.875246	1017.658019	-13.486230	-46.614404	993.123920	133.519370	-22.475250	993.147877	-96.977681	-129.750822	526.383446	175.940719	-144.480803	528.518436	39.484568	-13.512122	818.309079	136.474273	-28.049467	704.242058	87.846192	-47.287249	703.345852	158.767143	-108.961604	536.949563	-144.792233	-146.094690	530.893187	-10.488475	4.939335	810.891807	-64.382536	-19.763043	689.361282	-38.796507	-14.900087	695.900809	-114.242704	-182.962876	92.437291	141.807253	-171.208481	100.587014	66.002681	-111.124560	333.033794	128.992854	-145.428828	225.435181	83.911086	-140.327135	219.122390	156.695855	-177.706128	88.387169	-113.659824	-164.488168	99.830223	-36.410746	-109.189089	327.403221	-97.755928	-140.814089	220.804052	-54.110001	-127.520293	210.625703	-127.383213	-241.130647	51.546862	95.652115	-28.174677	63.806253	82.262673	-47.227335	51.588924	158.280016	-238.583945	57.816300	-74.813946	-26.687407	66.209434	-59.957450	-42.827558	52.306916	-135.035484	-74.036239	1389.482276	18.912596	-162.075077	1438.033617	171.963377	-143.847003	1447.460911	-163.669023	-171.097148	94.108696	-75.035285	-177.085679	96.512153	103.904967	-95.736332	920.263197	-72.383296	-113.188864	920.245876	94.265346	-127.528147	533.921375	-77.640354	-137.115812	527.450941	107.712643	
193	1.920000	-245.901460	1017.642599	-13.499376	-46.642536	993.134892	133.514745	-22.500417	993.152544	-96.979854	-129.760264	526.384237	175.939256	-144.492090	528.517372	39.483350	-13.525917	818.315162	136.470277	-28.058261	704.247710	87.843477	-47.298177	703.349562	158.764474	-108.969265	536.951842	-144.797728	-146.102286	530.893496	-10.495017	4.921473	810.887885	-64.379856	-19.761301	689.465219	-38.800937	-14.910988	695.902261	-114.252600	-182.963025	92.434901	141.809221	-171.207389	100.586115	66.003629	-111.131736	333.034016	128.990674	-145.436574	225.434225	83.908916	-140.328785	219.122989	156.695687	-177.705895	88.385372	-113.661167	-164.488224	99.829677	-36.411044	-109.194715	327.402564	-97.762776	-140.816239	220.804956	-54.111364	-127.523800	210.623815	-127.387666	-241.132304	51.544612	95.651941	-28.175016	63.807196	82.262618	-47.226677	51.590318	158.280428	-238.582117	57.812246	-74.811080	-26.687024	66.209289	-59.957224	-42.828021	52.308446	-135.038401	-74.134603	1389.470665	18.890044	-162.153027	1438.031758	171.936178	-143.916621	1447.448893	-163.696170	-171.097060	94.107524	-75.036106	-177.085207	96.510508	103.906425	-95.753819	920.261832	-72.384014	-113.208509	920.249070	94.262990	-127.535776	533.922669	-77.646372	-137.126177	527.450805	107.711303	
194	1.930000	-245.929630	1017.626866	-13.512507	-46.672012	993.146850	133.510788	-22.527575	993.157984	-96.982462	-129.768534	526.385129	175.936415	-144.502187	528.517023	39.481359	-13.539961	818.322037	136.464172	-28.066190	704.255018	87.838581	-47.308014	703.353637	158.759201	-108.978980	536.954045	-144.803278	-146.110401	530.893591	-10.501493	4.901437	810.880965	-64.374543	-19.759042	689.579965	-38.806679	-14.923341	695.904747	-114.263770	-182.963348	92.432608	141.810875	-171.206718	100.585701	66.004001	-111.138344	333.034211	128.987986	-145.443763	225.433988	83.906831	-140.330543	219.123491	156.694659	-177.706196	88.383560	-113.662748	-164.488154	99.829452	-36.411737	-109.201396	327.402476	-97.769742	-140.819174	220.805419	-54.113117	-127.527602	210.622569	-127.392380	-241.134838	51.542681	95.651562	-28.175410	63.808067	82.262908	-47.226169	51.591562	158.280394	-238.580751	57.808608	-74.807624	-26.686714	66.209696	-59.957248	-42.828264	52.310454	-135.041379	-74.234335	1389.459458	18.867511	-162.235244	1438.029740	171.908653	-143.987482	1447.438549	-163.722716	-171.097175	94.106506	-75.037243	-177.085033	96.509154	103.907438	-95.772908	920.260574	-72.384649	-113.229281	920.252525	94.261447	-127.544690	533.923818	-77.652385	-137.135360	527.451076	107.708887	
195	1.940000	-245.959559	1017.611150	-13.525517	-46.703120	993.159756	133.507293	-22.556564	993.164025	-96.985756	-129.776411	526.386262	175.932301	-144.511508	528.517329	39.478629	-13.554570	818.329574	136.456692	-28.074425	704.263622	87.831925	-47.317759	703.358047	158.751669	-108.990844	536.955978	-144.808707	-146.119066	530.893424	-10.507649	4.879560	810.871945	-64.367604	-19.757066	689.698252	-38.813532	-14.937385	695.908357	-114.275653	-182.963975	92.430510	141.812077	-171.206509	100.585784	66.003778	-111.144830	333.034524	128.985133	-145.450390	225.434467	83.904966	-140.332892	219.123896	156.692910	-177.707078	88.381828	-113.664456	-164.488093	99.829525	-36.412725	-109.209205	327.403016	-97.776627	-140.823043	220.805493	-54.115352	-127.531710	210.622155	-127.397212	-241.138007	51.541105	95.651042	-28.175914	63.808903	82.263514	-47.225983	51.592569	158.279898	-238.580125	57.805709	-74.803999	-26.686539	66.210608	-59.957549	-42.828242	52.312771	-135.044118	-74.334168	1389.449391	18.844674	-162.321653	1438.027752	171.880614	-144.059993	1447.429831	-163.748882	-171.097586	94.105677	-75.038591	-177.085242	96.508147	103.907927	-95.793593	920.259388	-72.385547	-113.251498	920.256302	94.260403	-127.554955	533.924701	-77.658178	-137.143960	527.451796	107.705465	
